<svg height="512" viewBox="0 0 58 58" width="512" xmlns="http://www.w3.org/2000/svg"><g id="Page-1" fill="none" fill-rule="evenodd"><g id="010---Bingo" fill-rule="nonzero"><path id="Shape" d="m31 52h-28c-1.65685425 0-3-1.3431458-3-3v-46c0-1.65685425 1.34314575-3 3-3h36c1.6568542 0 3 1.34314575 3 3v25.04z" fill="#b0d3f0"/><path id="Shape" d="m36 15h-30c-1.65685425 0-3 1.3431458-3 3v28c0 1.6568542 1.34314575 3 3 3h26v-2h-10v-6h7.818v-2h-7.818v-6h14v-2h-5v-6h6v7.085h2v-14.085c0-1.6568542-1.3431458-3-3-3zm-31 16v-6h6v6zm6 2v6h-6v-6zm2-8h7v6h-7zm0-2v-6h7v6zm9-6h7v6h-7zm-16 0h5v6h-6v-5c0-.5522847.44771525-1 1-1zm-1 29v-5h6v6h-5c-.55228475 0-1-.4477153-1-1zm15 1h-7v-6h7zm0-8h-7v-6h7zm9-8h-7v-6h7zm2-8v-6h5c.5522847 0 1 .4477153 1 1v5z" fill="#3b97d3"/><path id="Shape" d="m58 43c.0036043 8.1551559-6.5089399 14.8190737-14.6620263 15.0028215-8.1530864.1837477-14.9592378-6.1800038-15.3230394-14.3270419s5.8480518-15.0921017 13.9850657-15.6357796c.33-.03.66-.04 1-.04 8.2831279.0027597 14.9972403 6.7168721 15 15z" fill="#e64c3c"/><path id="Shape" d="m33.2 39c-.3481559-.000341-.6710747-.1817356-.8525051-.4788815s-.1952542-.6672667-.0364949-.9771185c2.0447146-4.0217143 6.1773503-6.551789 10.689-6.544.5522847 0 1 .4477153 1 1s-.4477153 1-1 1c-3.7600089-.0054063-7.2035956 2.1039693-8.907 5.456-.1715978.3349133-.516687.5451357-.893.544z" fill="#fff"/><g fill="#285680"><path id="Shape" d="m8.6 7.471c.25917175-.4471277.39705621-.9541978.4-1.471 0-1.65685425-1.34314575-3-3-3h-1c-1.1045695 0-2 .8954305-2 2v6c0 1.1045695.8954305 2 2 2h2c1.33557838.0031057 2.51169859-.8787827 2.8829609-2.161726.3712623-1.28294331-.15212885-2.6566418-1.2829609-3.367274zm-3.6-2.471h1c.55228475 0 1 .44771525 1 1s-.44771525 1-1 1h-1zm2 6h-2v-2h2c.55228475 0 1 .44771525 1 1 0 .5522847-.44771525 1-1 1z"/><path id="Shape" d="m13 3c-.5522847 0-1 .44771525-1 1v8c0 .5522847.4477153 1 1 1s1-.4477153 1-1v-8c0-.55228475-.4477153-1-1-1z"/><path id="Shape" d="m21 3c-.5522847 0-1 .44771525-1 1v3.764l-2.1-4.211c-.2040519-.42147024-.6732513-.64490274-1.129074-.53766446-.4558226.10723828-.7761896.51642664-.770926.98466446v8c0 .5522847.4477153 1 1 1s1-.4477153 1-1v-3.764l2.105 4.211c.2070599.415452.6727907.6337945 1.1245837.5272238.4517929-.1065707.7708502-.510032.7704163-.9742238v-8c0-.55228475-.4477153-1-1-1z"/><path id="Shape" d="m35 3c-1.6568542 0-3 1.34314575-3 3v4c0 1.6568542 1.3431458 3 3 3s3-1.3431458 3-3v-4c0-1.65685425-1.3431458-3-3-3zm1 7c0 .5522847-.4477153 1-1 1s-1-.4477153-1-1v-4c0-.55228475.4477153-1 1-1s1 .44771525 1 1z"/><path id="Shape" d="m29 7h-1c-.5522847 0-1 .44771525-1 1s.4477153 1 1 1v1c0 .5522847-.4477153 1-1 1s-1-.4477153-1-1v-4c-.0003485-.35743967.1901128-.68788589.4995777-.86675659s.6908704-.1789635 1.0004223-.00024341c.3099415.19174884.6996593.19969001 1.0171547.02072629s.5124835-.51648809.5089145-.88093096-.2051298-.69808382-.5260692-.87079533c-.9281914-.53589158-2.0717688-.53589884-2.999967-.00001905-.9281982.53587978-1.5000058 1.52623589-1.500033 2.59801905v4c0 1.6568542 1.3431458 3 3 3s3-1.3431458 3-3v-2c0-.55228475-.4477153-1-1-1z"/></g><circle id="Oval" cx="32" cy="42" fill="#fff" r="1"/><circle id="Oval" cx="43" cy="43" fill="#fff" r="7"/><path id="Shape" d="m42 47c-.3601643-.0004285-.6922741-.1945017-.869448-.5080746s-.172037-.698196.013448-1.0069254l2.089-3.485h-2.233c-.5522847 0-1-.4477153-1-1s.4477153-1 1-1h4c.3603432.0000685.6927828.1940002.8702014.5076399.1774186.3136396.1723754.6984775-.0132014 1.0073601l-3 5c-.1807575.3008613-.5060146.4849332-.857.485z" fill="#464f5d"/><path id="Shape" d="m43 51c-4.418278 0-8-3.581722-8-8s3.581722-8 8-8 8 3.581722 8 8c-.0049599 4.4162219-3.5837781 7.9950401-8 8zm0-14c-2.4267735 0-4.6145912 1.4618531-5.5432772 3.7038994s-.4153515 4.8227533 1.3006365 6.5387413 4.296695 2.2293225 6.5387413 1.3006365 3.7038994-3.1165037 3.7038994-5.5432772c-.0033074-3.3123376-2.6876624-5.9966926-6-6z" fill="#c03a2b"/></g></g></svg>